# xmcd
# Track frame offsets:
# 150
# 19637
# 35701
# 53109
# 71067
# 85823
# 101966
# 114773
# 129883
# 145175
# 161396
# 179868
#
# Disc length: 2622 seconds
# Revision: 0
# Processed by: cddbd v1.5.2PL0 Copyright (c) Steve Scherf et al.
# Submitted via: VisiTrax 2.11.3.279 - For more info visit www.synapsa.com
#
DISCID=a10a3c0c
DTITLE=Lynn Anderson - Bridges
DYEAR=2015
DGENRE=cd
TTITLE0=Heaven Has A Human Touch
TTITLE1=Get Up Joseph ( with Oak Ridge Boys)
TTITLE2=The Bridge
TTITLE3=Drift Away Gospel
TTITLE4=He Saw It All
TTITLE5=Meanwhile back At The cross
TTITLE6=Sky Full Of Angels
TTITLE7=My Gauardian Angel
TTITLE8=Fishin´
TTITLE9=Wanderer´s Prayer
TTITLE10=The Road To Surrender
TTITLE11=Rise Up
EXTD=
EXTT0=
EXTT1=
EXTT2=
EXTT3=
EXTT4=
EXTT5=
EXTT6=
EXTT7=
EXTT8=
EXTT9=
EXTT10=
EXTT11=
PLAYORDER=
